<?xml version="1.0" encoding="utf-8"?>
<!-- Generator: Adobe Illustrator 24.0.1, SVG Export Plug-In . SVG Version: 6.00 Build 0)  -->
<svg version="1.1" id="Capa_1" xmlns="http://www.w3.org/2000/svg" xmlns:xlink="http://www.w3.org/1999/xlink" x="0px" y="0px"
	 viewBox="0 0 496 496" style="enable-background:new 0 0 496 496;" xml:space="preserve">
<style type="text/css">
	.st0{fill:#D2A682;}
	.st1{fill:#262626;}
	.st2{fill:#E8D8CB;}
	.st3{fill:#AEA095;}
</style>
<g>
	<path class="st0" d="M30.6,248c0-56.7,0-113.4,0-170.1c0-6.3,5.3-12.6,11.2-14.5c2.3-0.8,4.5-0.8,6.8-0.8c101.6,0,203.2,0,304.7,0
		c5.9,0,12.3,4.9,14.4,10.2c0.7,1.9,0.9,3.7,0.9,5.7c0,16.8,0,33.7-0.1,50.5c0,1.8,0.5,2.3,2.3,2.3c11.8-0.1,23.6,0,35.4-0.1
		c6.4,0,12.4,1.7,18.3,4c4.9,1.8,9.5,4.2,13.7,7.2c1.5,1.1,3,2.1,4.4,3.5c2.7,2.7,5.7,5.1,8.1,8.1c2.5,3.1,4.8,6.4,6.8,9.9
		c1.8,3.2,3.4,6.6,4.6,10.1c1,2.7,1.6,5.6,2.3,8.4c1.7,6.4,0.8,12.9,0.8,19.4c0.1,34,0,68.1,0.1,102.1c0,5.4-0.9,10.6-2.4,15.8
		c-2.3,8-6.2,15.2-11.3,21.7c-3.3,4.1-7.2,7.8-11.5,11c-6.2,4.7-13,8.1-20.4,10.4c-5.1,1.6-10.3,2.7-15.8,2.5
		c-10.9-0.2-21.9,0-32.8-0.1c-1.9,0-2.6,0.4-2.6,2.5c0.1,16.9,0,33.8,0.1,50.7c0,5-2.4,8.7-6.1,11.6c-3.2,2.5-6.9,3.5-10.9,3.5
		c-47.2,0-94.4,0-141.7,0c-54.1,0-108.3,0-162.4-0.1c-5.2,0-9.7-1.8-13-5.9c-2.4-2.9-3.9-6.1-3.9-10C30.6,360.9,30.6,304.4,30.6,248
		z"/>
	<path class="st1" d="M46.8,247.8c0-55.3,0-110.6,0-165.9c0-3.5-0.3-3,3-3c100,0,200.1,0,300.1,0c3,0,3,0,3,2.9
		c0,15.6,0,31.2,0,46.8c0,2.8,0,2.8-2.9,2.8c-3.8,0-7.6-0.1-11.4,0c-1.5,0-2-0.4-2-2c0.1-8.1,0-16.2,0-24.3c0-2.6-0.9-4.9-2-7.1
		c-0.6-1.4-4.4-3-5.9-2.8c-0.9,0.1-1.9,0.2-2.8,0.2c-84.2,0-168.3,0-252.5,0c-2,0-3.9-0.8-5.9,0.3c-2.8,1.5-4.6,4.2-4.6,7.4
		c0,30.3,0,60.6,0,90.9c0,38.8,0,77.5-0.1,116.3c0,3.3,0.5,6.1,3.1,8.4c1.3,1.1,2.6,1.5,4.2,1.5c51.6,0,103.2,0,154.8-0.1
		c1.9,0,3.8,0.2,5.7-0.1c2.6-0.4,3.7,1,4.4,3.1c2.2,6.9,5.9,12.8,10.3,18.5c1.9,2.5,4,4.8,6.3,6.8c5.7,5.1,12.1,9.1,19.3,12
		c4.5,1.8,9,3,13.8,4c1.9,0.4,3.8,0.6,5.7,0.6c20,0,39.9,0,59.9,0c2,0,2.6,0.5,2.6,2.5c-0.1,15.7-0.1,31.5,0,47.2
		c0,1.9-0.5,2.4-2.4,2.4c-100.4-0.1-200.8-0.1-301.2,0c-2.3,0-2.6-0.8-2.6-2.7C46.8,359,46.8,303.4,46.8,247.8z"/>
	<path class="st2" d="M451.2,248.3c0,18.4,0.1,36.9-0.1,55.3c-0.1,7.2-2.2,14-5.5,20.5c-2.8,5.6-6.5,10.5-11.2,14.6
		c-4.3,3.7-9,6.5-14.3,8.7c-3.5,1.4-7.1,2.4-10.7,3.1c-2.3,0.5-4.6,0.6-6.9,0.6c-36.3,0-72.6,0.1-108.9-0.1
		c-8.3,0-16.1-2.4-23.4-6.6c-5.5-3.2-10.1-7.3-14.1-12.1c-3.4-4-5.8-8.6-7.6-13.5c-2.7-7.3-3.2-14.8-3.2-22.3
		c0-30.7-0.1-61.5,0.1-92.2c0.1-6.3-0.5-12.7,0.8-18.9c1.2-6,3.2-11.8,6.6-17c3.5-5.5,8.1-10.2,13.4-14s11.3-6.4,17.7-7.9
		c4.7-1.1,9.3-1.3,14-1.3c33.2,0,66.5,0,99.7,0c6.5,0,12.8,0.5,19.1,2.4c9.4,3,17,8.3,23.3,15.8c4.7,5.5,7.6,12,9.7,18.9
		c0.9,3.1,1.4,6.4,1.4,9.6C451.3,210.7,451.2,229.5,451.2,248.3z"/>
	<path class="st1" d="M320.5,111.6c0,5.8-0.1,11.7,0,17.5c0,1.7-0.4,2.2-2.2,2.2c-9.3-0.1-18.6,0.1-28-0.1
		c-6.1-0.1-11.7,1.7-17.4,3.6c-4.8,1.7-9.4,4-13.6,6.9c-5.1,3.4-9.7,7.4-13.6,12.3c-3.2,4.1-6.2,8.3-8.3,13
		c-0.6,1.4-1.2,1.4-2.2,0.3c-1.6-1.8-3.4-3.4-5.1-5.1c-4.2-4-8.5-4.1-12.6,0c-8,7.8-15.9,15.8-23.8,23.7
		c-10.9,10.9-21.8,21.8-32.7,32.8c-1.2,1.2-1.9,1.3-3.1,0c-5.3-5.5-10.8-10.9-16.2-16.3c-3.3-3.3-6.8-3.9-10.2-1.8
		c-2.5,1.7-4.5,3.9-6.6,6c-14.2,14.2-28.3,28.3-42.5,42.5c-0.5,0.5-0.9,1-1.4,1.4s-0.9,1.4-1.8,1c-0.8-0.4-0.4-1.3-0.4-2
		c0-45.4,0-90.7,0-136.1c0-2.4,0-2.4,2.4-2.3c0.9,0,1.7,0,2.6,0c77.7,0,155.4,0,233.2,0C318.2,111.2,319.5,110.8,320.5,111.6z"/>
	<path class="st1" d="M219.5,303.8c-0.7,0.4-1.5,0.2-2.3,0.2c-45.2,0-90.3,0-135.5,0.1c-2.1,0-2.7-0.6-2.7-2.7c0.1-8,0.1-16,0-24
		c0-1.3,0.3-2.3,1.3-3.3c17.7-17.7,35.4-35.4,53.1-53.1c1.3-1.3,2.3-1.3,3.7,0c27.2,27.3,54.5,54.5,81.7,81.8
		C219.1,303,219.6,303.2,219.5,303.8z"/>
	<path class="st1" d="M231.3,292.2c-8-8-15.8-16-23.7-23.8c-11.6-11.7-23.2-23.3-34.9-34.9c-1.3-1.2-1.4-2-0.1-3.3
		c16.6-16.5,33.1-33,49.6-49.6c1.2-1.2,2.1-1.4,3.2,0c0,0.1,0.1,0.1,0.2,0.2c5.2,3.6,6.4,8.5,6.3,14.8c-0.3,31.3-0.2,62.6-0.2,93.9
		C231.7,290.3,232,291.2,231.3,292.2z"/>
	<path class="st3" d="M320.5,111.6c-1.2,0-2.5-0.1-3.7-0.1c-77.8,0-155.6,0-233.4,0c-4.2,0-4.2,0-4.2,4.1c0,44.6,0,89.2,0,133.7
		c0,0.6-0.4,1.5,0.2,1.8c0.8,0.4,1.2-0.6,1.7-1c15.5-15.4,30.9-30.9,46.3-46.3c1.2-1.2,2.4-2.6,4.1-3.1c-0.6,1.5-2.2,2-3.3,3.1
		c-15.6,15.7-31.3,31.4-47,47c-0.6,0.6-1,1.7-2,1.3s-0.6-1.5-0.6-2.4c0-45.5,0-91.1-0.1-136.6c0-2.1,0.7-2.5,2.6-2.5
		c79,0,157.9,0,236.9,0.1C319,110.7,320.2,110.1,320.5,111.6z"/>
	<path class="st0" d="M348.7,311.9c-36.6,1.1-63.4-29.8-64.5-61.1c-1.3-38.3,29.3-65.1,60-66.5c17.4-0.8,32.9,4.1,45.9,15.7
		c14.4,12.8,22,28.9,22.1,48.3C412.6,282.5,383.4,312.8,348.7,311.9z"/>
	<path class="st0" d="M394.8,180.4c-0.4-10.3,8.7-19.1,18.9-19c10.8,0.2,18.9,8.4,19.1,19.1c0.1,9.7-8.6,19-19.2,19
		C403.4,199.5,394.3,190.5,394.8,180.4z"/>
	<path class="st0" d="M127.2,127.2c18.1-0.4,31.8,14.7,32.3,30.7c0.7,19.8-14.8,32.8-30.3,33.7c-19.7,1.1-34.9-15-34.3-33.7
		C95.5,142.1,109.4,126.7,127.2,127.2z"/>
	<path class="st2" d="M347.7,297.9c-27.6-0.1-49.5-22.3-49.4-49.8c0.2-28,21.7-50.1,50.9-49.8c26.7,0.3,49,21.8,49.1,49.8
		C398.4,275.1,376.2,298.5,347.7,297.9z"/>
	<path class="st2" d="M418.5,180.8c-0.1,2.6-2.3,4.8-4.9,4.7c-2.6,0-4.9-2.4-4.8-5.1c0-2.6,2.4-5,5-5
		C416.5,175.4,418.5,177.8,418.5,180.8z"/>
	<path class="st1" d="M127.2,175.1c-8.1,0.7-15.8-7.4-15.8-15.6c0-8.4,7.4-15.9,15.8-16s16,7.6,16,16
		C143.2,167.5,135.5,175.9,127.2,175.1z"/>
</g>
</svg>
