<?xml version="1.0" encoding="utf-8"?>
<!-- Generator: Adobe Illustrator 23.0.3, SVG Export Plug-In . SVG Version: 6.00 Build 0)  -->
<svg version="1.1" id="Capa_1" xmlns="http://www.w3.org/2000/svg" xmlns:xlink="http://www.w3.org/1999/xlink" x="0px" y="0px"
	 viewBox="0 0 496 496" style="enable-background:new 0 0 496 496;" xml:space="preserve">
<style type="text/css">
	.st0{fill:#EDD8CA;}
	.st1{fill:#DCA57D;}
</style>
<path class="st0" d="M342.4,66.8c-52.8-52.9-138.6-53-191.5-0.1c0,0-0.1,0.1-0.1,0.1C103,114.5,97.2,204.4,138.2,259l108.4,156.6
	l108.2-156.3C396,204.4,390.2,114.5,342.4,66.8z M248,216.4c-30.5,0-55.2-24.7-55.2-55.2c0-30.5,24.7-55.2,55.2-55.2
	s55.2,24.7,55.2,55.2S278.5,216.4,248,216.4C248,216.4,248,216.4,248,216.4z"/>
<g>
	<path class="st1" d="M246.6,443.3l121-174.8c45.4-60.5,38.9-160-14-212.9c-59.1-59.1-154.9-59.1-214,0
		C86.7,108.5,80.2,208,125.4,268.3L246.6,443.3z M150.8,66.8c52.8-52.9,138.6-53,191.5-0.1c0,0,0.1,0.1,0.1,0.1
		c47.8,47.7,53.6,137.6,12.4,192.5L246.6,415.6L138.2,259C97.2,204.4,103,114.5,150.8,66.8z"/>
	<path class="st1" d="M343.6,350.6c-4.3-0.5-8.2,2.6-8.8,6.9c-0.5,4.3,2.6,8.3,6.9,8.8c0,0,0.1,0,0.1,0
		c82.9,9.8,127.1,36.1,127.1,51.3c0,21.5-84,51.3-220.9,51.3S27.1,439.1,27.1,417.6c0-15.2,44.2-41.5,127.1-51.3
		c4.3-0.5,7.5-4.4,7-8.7c0,0,0-0.1,0-0.1c-0.6-4.3-4.5-7.4-8.8-6.9c-83.1,9.8-141.1,37.4-141.1,67c0,33.4,81.3,67.1,236.7,67.1
		s236.7-33.7,236.7-67.1C484.7,388,426.7,360.4,343.6,350.6z"/>
	<path class="st1" d="M248,106c-30.5,0-55.2,24.7-55.2,55.2s24.7,55.2,55.2,55.2s55.2-24.7,55.2-55.2S278.5,106,248,106
		C248,106,248,106,248,106z M248,200.7c-21.8,0-39.5-17.7-39.5-39.5s17.7-39.5,39.5-39.5s39.5,17.7,39.5,39.5l0,0
		C287.5,183,269.8,200.7,248,200.7z"/>
</g>
</svg>
