<?xml version="1.0" encoding="utf-8"?>
<!-- Generator: Adobe Illustrator 23.0.3, SVG Export Plug-In . SVG Version: 6.00 Build 0)  -->
<svg version="1.1" id="Capa_1" xmlns="http://www.w3.org/2000/svg" xmlns:xlink="http://www.w3.org/1999/xlink" x="0px" y="0px"
	 viewBox="0 0 395.2 395.2" style="enable-background:new 0 0 395.2 395.2;" xml:space="preserve">
<style type="text/css">
	.st0{fill:#DCA57D;}
	.st1{fill:#EDD8CA;}
</style>
<path class="st0" d="M183.1,193.2h-27.2v-20.4c0-2.4,1.9-4.3,4.3-4.3l0,0h22.4c4.3-0.5,7.4-4.4,6.9-8.6c-0.4-3.6-3.3-6.5-6.9-6.9
	h-22.4c-10.9,0-19.8,8.9-19.8,19.8l0,0v62.3c0,10.9,8.9,19.8,19.8,19.8h22.9c10.9-0.1,19.7-8.8,19.9-19.7l0,0V213l0,0
	C202.9,202.1,194,193.3,183.1,193.2z M187.5,235.1c0,2.4-2,4.4-4.4,4.4h-22.9c-2.4-0.1-4.3-2-4.3-4.4v-26.5h27.2
	c2.4,0,4.4,2,4.4,4.4V235.1z"/>
<path class="st0" d="M254.2,153h-23c-10.9,0.1-19.7,8.9-19.7,19.8v62.3c0,10.9,8.8,19.7,19.7,19.8h23c10.9,0,19.8-8.9,19.8-19.8
	v-62.3C274,161.9,265.1,153,254.2,153z M258.5,235.1c0,2.4-1.9,4.3-4.3,4.4h-23c-2.4-0.1-4.3-2-4.3-4.4v-62.3c0-2.4,1.9-4.3,4.3-4.3
	h23c2.4,0,4.3,1.9,4.3,4.3V235.1z"/>
<path class="st0" d="M112.2,153H92.5c-10.9,0-19.8,8.9-19.8,19.8l0,0v0.3c0,4.3,3.4,7.7,7.7,7.7s7.7-3.4,7.7-7.7c0,0,0,0,0,0v-0.3
	c0.1-2.4,2-4.3,4.4-4.3h19.7c2.4,0,4.3,1.9,4.3,4.3l0,0v23.5H96.7c-4.3,0-7.7,3.4-7.7,7.7s3.4,7.7,7.7,7.7l0,0h19.8v23.4
	c0,2.4-1.9,4.3-4.3,4.4H92.5c-2.4,0-4.4-2-4.4-4.4v-1c0-4.3-3.4-7.7-7.7-7.7s-7.7,3.4-7.7,7.7l0,0v1c0,10.9,8.9,19.8,19.8,19.8h19.7
	c10.9-0.1,19.7-8.9,19.7-19.8v-62.3C131.9,161.9,123.1,153.1,112.2,153z"/>
<path class="st0" d="M302,140.3c-11.3,0-20.5,9.2-20.5,20.5s9.2,20.5,20.5,20.5s20.5-9.2,20.5-20.5l0,0
	C322.5,149.5,313.3,140.3,302,140.3z M302,165.8c-2.8,0-5.1-2.3-5.1-5.1c0-2.8,2.3-5.1,5.1-5.1s5.1,2.3,5.1,5.1c0,0,0,0.1,0,0.1
	C307,163.6,304.8,165.8,302,165.8z"/>
<path class="st0" d="M351.8,39c-2.9-1.2-6.2-0.6-8.4,1.6l-11.8,11.8c-63.9-59-158.9-69.3-234-25.3c-7.2,4-47.6,27.8-74.8,78
	c-0.3,0.5-0.5,1-0.7,1.6C7.5,134.8,0,166,0,197.6c0,4.3,3.4,7.7,7.7,7.7h35.5c4.3,0.1,7.7-3.3,7.8-7.6c0,0,0-0.1,0-0.1
	c0.1-81,65.8-146.6,146.9-146.5c36.1,0,70.9,13.4,97.7,37.4l-11.1,11c-2.2,2.2-2.8,5.5-1.7,8.4c1.2,2.9,4.1,4.8,7.2,4.8h58.9
	c4.2-0.1,7.6-3.5,7.7-7.7V46.1C356.6,43,354.7,40.2,351.8,39z M341.2,97.3h-32.6l3.5-3.5c1.4-1.5,2.2-3.5,2.2-5.5c0-2-0.8-4-2.2-5.4
	c-30.3-30.5-71.5-47.5-114.5-47.4c-86.8,0-157.9,68.6-161.9,154.4H15.6c1.1-26.2,7.9-51.9,19.9-75.3c0.5-0.6,1-1.2,1.3-1.9
	c26.9-49.6,71.2-73.3,71.9-74.1c71.1-39.7,159.9-27.4,217.6,30.1c3,3,7.9,3,10.9,0c0,0,0,0,0,0l4-4V97.3z"/>
<path class="st0" d="M373.1,288.5c14.6-28.1,22.1-59.3,22.1-90.9c0-4.3-3.4-7.7-7.7-7.7l0,0H352c-4.3-0.1-7.7,3.3-7.8,7.6
	c0,0,0,0.1,0,0.1c-0.1,81-65.8,146.6-146.9,146.5c-36.1,0-70.9-13.4-97.7-37.4l11.1-11c2.2-2.2,2.8-5.5,1.7-8.4
	c-1.2-2.9-4.1-4.8-7.2-4.8H46.3c-4.2,0.1-7.6,3.5-7.7,7.7v58.9c0.1,4.3,3.6,7.7,7.9,7.7c2,0,3.9-0.8,5.3-2.2l11.8-11.8
	c70.4,65.1,177.4,70.1,253.7,12l1.2-1.1c16.5-13.2,31-28.7,43.1-46c0.2-0.2,0.4-0.4,0.5-0.7l0.7-0.9
	C368.8,297.3,372.9,289.3,373.1,288.5z M307.9,342.5c-72.5,55.1-174.5,48.3-239-16c-3-3-7.9-3-10.9,0c0,0,0,0,0,0l-4,4v-32.6h32.6
	l-3.5,3.5c-1.4,1.5-2.2,3.5-2.2,5.5c0,2,0.8,4,2.2,5.4c30.3,30.5,71.5,47.5,114.5,47.4c86.8,0,157.9-68.6,161.9-154.4h20.1
	c-1.4,33.3-11.8,65.5-30.3,93.2c-0.4,0.6-0.7,1.2-0.9,1.9C340.1,312,308.4,342.2,307.9,342.5z"/>
<path class="st1" d="M307.9,342.5c-72.5,55.1-174.5,48.3-239-16c-3-3-7.9-3-10.9,0c0,0,0,0,0,0l-4,4v-32.6h32.6l-3.5,3.5
	c-1.4,1.5-2.2,3.5-2.2,5.5c0,2,0.8,4,2.2,5.4c30.3,30.5,71.5,47.5,114.5,47.4c86.8,0,157.9-68.6,161.9-154.4h20.1
	c-1.4,33.3-11.8,65.5-30.3,93.2c-0.4,0.6-0.7,1.2-0.9,1.9C340.1,312,308.4,342.2,307.9,342.5z"/>
<path class="st1" d="M341.2,97.3h-32.6l3.5-3.5c1.4-1.5,2.2-3.5,2.2-5.5c0-2-0.8-4-2.2-5.4c-30.3-30.5-71.5-47.5-114.5-47.4
	c-86.8,0-157.9,68.6-161.9,154.4H15.6c1.1-26.2,7.9-51.9,19.9-75.3c0.5-0.6,1-1.2,1.3-1.9c26.9-49.6,71.2-73.3,71.9-74.1
	c71.1-39.7,159.9-27.4,217.6,30.1c3,3,7.9,3,10.9,0c0,0,0,0,0,0l4-4V97.3z"/>
</svg>
