<?xml version="1.0" encoding="utf-8"?>
<!-- Generator: Adobe Illustrator 23.0.3, SVG Export Plug-In . SVG Version: 6.00 Build 0)  -->
<svg version="1.1" id="Capa_1" xmlns="http://www.w3.org/2000/svg" xmlns:xlink="http://www.w3.org/1999/xlink" x="0px" y="0px"
	 viewBox="0 0 496 496" style="enable-background:new 0 0 496 496;" xml:space="preserve">
<style type="text/css">
	.st0{fill:#EDD8CA;}
	.st1{fill:#DCA57D;}
</style>
<path id="XMLID_284_" class="st0" d="M249.1,293.7H198c-1.8,0-3.4-1.6-3.4-3.4V154.8c0-1.8,1.6-3.4,3.4-3.4h51.1
	c1.8,0,3.4,1.6,3.4,3.4v135.6C252.5,292.2,251,293.7,249.1,293.7z"/>
<g>
	<path class="st1" d="M430.9,328.5c-4.1-1.6-8.6,0.3-10.3,4.4c-6,15.2-21,25.5-37.4,25.5H217.9c-2,0-4,0.8-5.5,2.2L137,432.9v-66.6
		c0-2.1-0.9-4.1-2.4-5.6c-1.5-1.5-3.5-2.4-5.6-2.4H91.4c-22.1,0-40.2-18-40.2-40.2v-178c0-22.1,18-40.2,40.2-40.2h179
		c4.4,0,7.9-3.6,7.9-7.9s-3.6-7.9-7.9-7.9h-179c-30.8,0-55.9,25.1-55.9,55.9v178.1c0,30.8,25.1,55.9,55.9,55.9h29.8v77.2
		c0,3.1,1.9,6,4.8,7.2c1,0.4,2.1,0.6,3.1,0.6c2,0,4-0.8,5.5-2.2l86.5-82.9h162.1c22.7,0.1,43.6-14.2,52-35.4
		C436.9,334.7,435,330.1,430.9,328.5z"/>
	<path class="st1" d="M445.9,138c-6.7-4.8-14.5-7.3-22.7-7.3h-57.8V89.4c0-18.3-5.4-31.5-16-39.3c-16.8-12.4-39.8-5.3-40.8-5.1
		c-3.3,1-5.5,4.1-5.5,7.5v47.7c0,36.7-42.8,49.2-44.5,49.7c-0.2,0.1-0.3,0.2-0.5,0.2c-2.6-4-7.1-6.7-12.4-6.7h-44.3
		c-8.1,0-14.7,6.6-14.7,14.7v128.7c0,8.1,6.6,14.7,14.7,14.7h44.3c4.1,0,7.8-1.7,10.5-4.4c7.1,7.1,16.8,11.4,27.6,11.4h116.6
		c26.4,0,43.2-13.9,46.3-38l14.8-94.4C463.7,161.5,457.6,146.5,445.9,138z M244.6,285.8h-42.1V159.3h42.1V285.8z M445.8,173.8
		l-14.9,94.6c0,0.1,0,0.2,0,0.3c-2,16.1-12.3,24.3-30.6,24.3H283.7c-12.9,0-23.3-10.5-23.3-23.3V165.5c0.8,0,1.6,0,2.4-0.3
		c2.3-0.6,56.1-16.2,56.1-65V59c5.8-0.8,14.6-1,21.3,3.8c6.4,4.7,9.5,13.6,9.5,26.6v49.2c0,4.4,3.6,7.9,7.9,7.9h65.7
		c4.9,0,9.6,1.5,13.5,4.4C443.6,155.9,447.2,164.9,445.8,173.8z"/>
</g>
</svg>
