<?xml version="1.0" encoding="utf-8"?>
<!-- Generator: Adobe Illustrator 23.0.3, SVG Export Plug-In . SVG Version: 6.00 Build 0)  -->
<svg version="1.1" id="Capa_1" xmlns="http://www.w3.org/2000/svg" xmlns:xlink="http://www.w3.org/1999/xlink" x="0px" y="0px"
	 viewBox="0 0 496 496" style="enable-background:new 0 0 496 496;" xml:space="preserve">
<style type="text/css">
	.st0{fill:#EDD8CA;}
	.st1{fill:#DCA57D;}
</style>
<path class="st0" d="M386.4,62.5C359.6,28.1,318.5,8,274.9,8c-44.1,0-87.7,9.4-127.8,27.7l-3.1,1.4c-20.6,9.3-29.7,33.6-20.3,54.1
	c1.2,2.7,2.8,5.3,4.5,7.7L144,120v56c0-17.7,14.3-32,32-32c0,0,40-8,72-8s72,8,72,8c17.7,0,32,14.3,32,32v-56l10.5,5.3
	c12.9,6.4,28.5,1.1,34.8-11.8c1.7-3.5,2.7-7.4,2.7-11.4C400,87.8,395.2,73.8,386.4,62.5z"/>
<g>
	<title>Marie-Blachere_Pictos</title>
	<rect x="272" y="384" class="st1" width="16" height="16"/>
	<rect x="272" y="416" class="st1" width="16" height="16"/>
	<rect x="160" y="392" class="st1" width="72" height="16"/>
	<path class="st1" d="M387.7,328L320,313.5v-4.2c0-9.7-6.6-18.2-16-20.6V265c13.6-13.2,22-30.9,23.6-49.8
		c18.8-3.7,32.3-20.1,32.4-39.2v-43.1c4.4,2,9.2,3.1,14.1,3.1c18.7,0,33.9-15.2,33.9-33.9c0-16.1-5.4-31.8-15.3-44.5
		C364.5,21.1,321-0.1,274.9,0C229.7,0,185,9.6,143.8,28.4l-3.1,1.4c-24.6,11.2-35.5,40.1-24.3,64.7c1.5,3.2,3.3,6.3,5.4,9.2l14.2,19
		V176c0.1,19.1,13.6,35.5,32.4,39.2c1.6,18.9,10,36.6,23.6,49.8v23.7c-9.4,2.4-16,10.9-16,20.6v4.2L108.3,328
		c-25.8,5.6-44.2,28.4-44.3,54.8V496h368V382.8C431.9,356.4,413.5,333.6,387.7,328z M342.7,183.8c-2.4,6.9-7.8,12.4-14.7,14.7v-45
		C340.4,157.8,347,171.3,342.7,183.8z M146.9,110.5l-12.3-16.4c-4.3-5.7-6.6-12.6-6.6-19.7c0-12.9,7.6-24.6,19.3-30l3.1-1.4
		c39.1-17.8,81.5-27,124.5-27c41.2-0.1,80,18.9,105.2,51.5c7.7,9.9,11.9,22.1,11.9,34.6c0,9.9-8,17.9-17.9,17.9
		c-2.8,0-5.5-0.7-8-1.9l-6.1-3v-0.5l-5-2c-0.9-0.4-12.5-4.9-32.6-9.1c3.3-12.8,9.9-24.5,19.3-33.8l-11.4-11.3
		c-11.5,11.5-19.6,25.8-23.5,41.6l-0.2,0.6c-7.9-1.3-16.6-2.4-26.1-3.2c1-11.8,5-23.1,11.5-32.9l2.7-4.1l-13.4-8.8l-2.6,4
		c-8.2,12.2-13.1,26.2-14.3,40.8c-5.3-0.2-10.7-0.4-16.4-0.4c-5.7,0-11.1,0.2-16.4,0.4c-1.2-14.6-6.1-28.6-14.3-40.8l-2.6-4
		l-13.4,8.8l2.7,4.1c6.5,9.8,10.5,21.1,11.5,32.9c-9.5,0.8-18.2,1.9-26.1,3.2l-0.2-0.6c-3.9-15.8-12-30.2-23.5-41.7l-11.4,11.4
		c9.4,9.3,16,21,19.3,33.8C164.6,105.3,155.7,107.6,146.9,110.5z M168,198.5c-9.6-3.3-16-12.4-16-22.5c0-10.1,6.4-19.2,16-22.5
		V198.5z M152,144.2v-18.5c12.4-4.1,47.2-13.7,96-13.7s83.6,9.6,96,13.7v18.5c-6.5-4.9-14.3-7.7-22.4-8c-1.7-0.4-41.2-8.2-73.6-8.2
		c-32.4,0-71.9,7.8-73.6,8.2C166.3,136.5,158.5,139.3,152,144.2z M184,208v-57.3c12.4-2.2,40.6-6.7,64-6.7c23.4,0,51.6,4.5,64,6.7
		V208c0,35.3-28.7,64-64,64C212.7,272,184,243.3,184,208z M288,277.2v13.5l-40,17.2l-40-17.2v-13.5c12.1,7.1,25.9,10.8,40,10.8
		C262.1,288,275.9,284.3,288,277.2z M304,480H144v-96h-16v96H80v-97.2c0.1-18.8,13.2-35.1,31.6-39.1l80.4-17.2v-17.2
		c0.1-3,2.7-5.4,5.8-5.2c0.6,0,1.1,0.1,1.6,0.3l48.6,20.9V358l56,16V480z M416,480h-48v-96h-16v96h-32V362l-56-16v-27.6l32.6-14
		c2.8-1.1,6,0.4,7.1,3.3c0.2,0.5,0.3,1.1,0.3,1.6v17.2l80.4,17.2c18.4,4,31.5,20.3,31.6,39.1V480z"/>
	<circle class="st1" cx="288" cy="168" r="8"/>
	<circle class="st1" cx="208" cy="168" r="8"/>
	<path class="st1" d="M208,224v24h80v-24c-0.1-13.2-10.8-23.9-24-24h-32C218.8,200.1,208.1,210.8,208,224z M224,224c0-4.4,3.6-8,8-8
		h32c4.4,0,8,3.6,8,8v8h-48V224z"/>
</g>
</svg>
